<svg width="36" height="36" viewBox="0 0 36 36" fill="none" xmlns="http://www.w3.org/2000/svg">
<path d="M36 18C36 27.9411 27.9411 36 18 36C8.05888 36 0 27.9411 0 18C0 8.05888 8.05888 0 18 0C27.9411 0 36 8.05888 36 18Z" fill="#2875C3"/>
<path d="M18.9 9.72003H7.02002V12.6H11.34V25.92H14.58V12.6H18.9V9.72003Z" fill="white"/>
<path d="M23.04 25.9489C21.24 25.9489 20.7337 25.6653 19.44 25.4089V22.3489C21.9356 23.5802 25.3902 23.58 25.5702 21.6C25.7502 19.62 21.7887 18.8569 20.7087 17.6689C19.6287 16.4809 19.44 15.8689 19.44 14.0689C19.44 12.2689 20.7087 11.1889 20.7087 11.1889C20.7087 11.1889 21.7887 10.1089 24.1287 9.92893C26.4687 9.74893 28.8 10.4689 28.8 10.4689L28.8087 13.5289C29.0878 13.3372 23.5887 11.7289 22.8688 13.8889C22.1489 16.0489 25.7488 16.9489 26.6488 17.4889C27.5488 18.0289 28.7313 18.6939 28.8 21.2689C28.8 21.2689 28.8 23.7889 27.18 24.8689C25.56 25.9489 24.84 25.9489 23.04 25.9489Z" fill="white"/>
</svg>
