<svg width="24" height="24" viewBox="0 0 24 24" fill="none" xmlns="http://www.w3.org/2000/svg">
    <path fill-rule="evenodd" clip-rule="evenodd"
        d="M12 24C18.6274 24 24 18.6274 24 12C24 5.37258 18.6274 0 12 0C5.37258 0 0 5.37258 0 12C0 18.6274 5.37258 24 12 24ZM16 15.5V12.5C15.8327 11.1044 15.0971 10.4868 14 10.5C12.9029 10.5132 12.6572 10.7637 12.5 11.5V10.5H10.5V15.5H12.5V12.5C12.4646 11.8453 14.0642 11.5871 14 12.5V15.5H16ZM8 10.5H10V15.5H8V10.5ZM9 10C9.55228 10 10 9.55228 10 9C10 8.44772 9.55228 8 9 8C8.44772 8 8 8.44772 8 9C8 9.55228 8.44772 10 9 10Z"
        fill="currentColor" />
</svg>